<?xml version="1.0" encoding="utf-8"?>
<!-- Generator: Adobe Illustrator 27.3.1, SVG Export Plug-In . SVG Version: 6.00 Build 0)  -->
<svg version="1.1" id="Layer_1" xmlns="http://www.w3.org/2000/svg" xmlns:xlink="http://www.w3.org/1999/xlink" x="0px" y="0px"
	 viewBox="0 0 1000 1000" style="enable-background:new 0 0 1000 1000;" xml:space="preserve">
<style type="text/css">
	.st0{fill:#80C350;}
	.st1{fill:#18B24B;}
</style>
<g>
	<path class="st0" d="M910.97,511.16L837.2,383.37l-166.85,96.33l91.2,157.96H637.23v-75.97L518.79,734l118.44,172.31v-75.97h59.9
		c41.07,0,79.26-21.08,101.15-55.83l110.26-175.05C924.9,574.35,928.09,540.8,910.97,511.16z"/>
	<path class="st1" d="M908.55,599.45c-14.67,22.51-39.92,38.21-70.61,38.21h-76.39l-91.2-157.96l166.85-96.33l73.77,127.78
		C928.09,540.8,924.9,574.35,908.55,599.45z"/>
	<path class="st0" d="M430.5,623.02l-182.4,0.01l62.15-107.66l65.8,37.99l-90.01-188.72L77.6,381.05l65.8,37.99l-29.95,51.87
		c-20.54,35.57-21.37,79.19-2.23,115.51l96.47,183.02c13.56,26.71,41.02,46.25,75.26,46.25H430.5L430.5,623.02z"/>
	<path class="st1" d="M207.7,769.44c-12.16-23.95-13.14-53.68,2.21-80.26l38.19-66.16l182.4-0.01l0,192.67H282.95
		C248.72,815.68,221.26,796.15,207.7,769.44z"/>
	<path class="st0" d="M424.36,359.11l85.29-161.23l66.1,105.29l-64.34,40.4l208.91,8.69l82.96-191.93l-64.34,40.4L707.07,150
		c-21.84-34.78-60-55.92-101.07-55.99L399.12,93.7c-29.95-0.5-60.06,14.64-76.07,44.89l-69,130.42L424.36,359.11z"/>
	<path class="st1" d="M399.12,93.7c26.86,0.45,53.59,13.49,69.91,39.48l40.62,64.7l-85.29,161.23l-170.3-90.09l69-130.42
		C339.06,108.34,369.17,93.2,399.12,93.7z"/>
</g>
</svg>
